<svg width="40" height="40" viewBox="0 0 40 40" fill="none" xmlns="http://www.w3.org/2000/svg">
<g clip-path="url(#clip0_148_216)">
<path fill-rule="evenodd" clip-rule="evenodd" d="M6.66659 19.9999C6.66682 17.434 7.40744 14.9227 8.79957 12.7672C10.1917 10.6118 12.1762 8.90382 14.5149 7.84827C16.8537 6.79272 19.4473 6.43443 21.9846 6.81637C24.522 7.19832 26.8952 8.30429 28.8196 10.0016C30.7439 11.6989 32.1377 13.9154 32.8335 16.3851C33.5294 18.8548 33.4979 21.4729 32.7427 23.9252C31.9876 26.3775 30.5409 28.5598 28.5762 30.2102C26.6115 31.8607 24.2124 32.9092 21.6666 33.2299V23.3333H24.9999C25.4419 23.3333 25.8659 23.1577 26.1784 22.8451C26.491 22.5325 26.6666 22.1086 26.6666 21.6666C26.6666 21.2246 26.491 20.8006 26.1784 20.4881C25.8659 20.1755 25.4419 19.9999 24.9999 19.9999H21.6666V16.6666C21.6666 16.2246 21.8422 15.8006 22.1547 15.4881C22.4673 15.1755 22.8912 14.9999 23.3333 14.9999H24.1666C24.6086 14.9999 25.0325 14.8243 25.3451 14.5118C25.6577 14.1992 25.8333 13.7753 25.8333 13.3333C25.8333 12.8912 25.6577 12.4673 25.3451 12.1547C25.0325 11.8422 24.6086 11.6666 24.1666 11.6666H23.3333C22.0072 11.6666 20.7354 12.1934 19.7977 13.1311C18.86 14.0687 18.3333 15.3405 18.3333 16.6666V19.9999H14.9999C14.5579 19.9999 14.134 20.1755 13.8214 20.4881C13.5088 20.8006 13.3333 21.2246 13.3333 21.6666C13.3333 22.1086 13.5088 22.5325 13.8214 22.8451C14.134 23.1577 14.5579 23.3333 14.9999 23.3333H18.3333V33.2299C15.1111 32.8236 12.148 31.2554 9.99992 28.8195C7.8519 26.3836 6.66664 23.2476 6.66659 19.9999ZM19.9999 36.6666C29.2049 36.6666 36.6666 29.2049 36.6666 19.9999C36.6666 10.7949 29.2049 3.33325 19.9999 3.33325C10.7949 3.33325 3.33325 10.7949 3.33325 19.9999C3.33325 29.2049 10.7949 36.6666 19.9999 36.6666Z" fill="white"/>
</g>
<defs>
<clipPath id="clip0_148_216">
<rect width="40" height="40" fill="white"/>
</clipPath>
</defs>
</svg>
