<svg width="40" height="40" viewBox="0 0 40 40" fill="none" xmlns="http://www.w3.org/2000/svg">
<path d="M25.5832 9.25003C24.3168 9.24981 23.1009 9.74666 22.197 10.6337C21.2931 11.5208 20.7735 12.7271 20.7499 13.9934L20.7032 16.6184C20.7007 16.7594 20.6684 16.8984 20.6084 17.0261C20.5484 17.1538 20.462 17.2673 20.3549 17.3593C20.2479 17.4512 20.1226 17.5194 19.9873 17.5595C19.852 17.5996 19.7098 17.6105 19.5699 17.5917L16.9666 17.2367C13.5449 16.77 10.2649 15.195 7.11658 12.5734C6.12158 18.09 8.06658 21.9117 12.7549 24.86L15.6666 26.69C15.8047 26.7769 15.9194 26.8962 16.0008 27.0376C16.0822 27.179 16.1278 27.3382 16.1335 27.5012C16.1393 27.6643 16.1051 27.8263 16.0338 27.9731C15.9626 28.1199 15.8566 28.247 15.7249 28.3434L13.0716 30.2834C14.6499 30.3834 16.1482 30.3134 17.3916 30.0667C25.2549 28.4967 30.4832 22.58 30.4832 12.82C30.4832 12.0234 28.7949 9.25003 25.5832 9.25003ZM17.4166 13.9334C17.4457 12.3268 17.9481 10.7645 18.8608 9.44206C19.7736 8.11965 21.0562 7.09589 22.5481 6.49897C24.04 5.90205 25.6748 5.75849 27.2478 6.08627C28.8209 6.41405 30.2623 7.1986 31.3916 8.34169C32.5766 8.33336 33.5849 8.63336 35.8382 7.26503C35.2816 9.99836 35.0049 11.1867 33.8166 12.8184C33.8166 25.5534 25.9882 31.7484 18.0432 33.3334C12.5982 34.42 4.67658 32.635 2.40991 30.2634C3.56491 30.175 8.26491 29.67 10.9816 27.68C8.68158 26.1634 -0.465088 20.78 5.54658 6.31003C8.36825 9.60503 11.2299 11.8467 14.1299 13.0384C16.0582 13.83 16.5332 13.8134 17.4182 13.935L17.4166 13.9334Z" fill="white"/>
</svg>
